<svg width="133" height="166" viewBox="0 0 133 166" fill="none" xmlns="http://www.w3.org/2000/svg">
<g id="Group 812">
<path id="Vector" d="M44.5645 7.97584C46.8646 7.34888 48.6057 5.6304 50.785 4.77305C54.7318 3.22453 58.8184 2.24632 63.0296 1.70623C64.291 1.54383 65.5752 1.57782 66.7951 1.33232C68.9177 0.905534 70.8628 0.712914 72.6681 2.29542C73.6124 3.12256 74.7907 2.6429 75.8483 2.31808C79.2966 1.25301 82.7939 0.656261 86.4008 1.21146C87.1336 1.32477 87.8965 1.32477 88.1798 2.49182C88.4328 3.54557 89.6338 3.72308 90.7405 3.65132C94.827 3.39449 98.6794 4.3236 102.226 6.30268C105.78 8.28554 108.711 11.0011 111.34 14.1548C113.726 17.0214 116.083 19.9636 119.558 21.7841C122.723 23.4421 124.649 26.2937 126.462 29.4134C129.185 34.108 130.099 39.237 131.285 44.3547C132.584 49.9596 132.588 55.6513 132.346 61.3204C132.131 66.321 130.979 71.2045 129.597 76.0313C127.251 84.2233 123.954 92.0792 121.28 100.154C119.581 105.276 118.032 110.427 117.315 115.802C117.031 117.932 115.641 118.559 113.742 117.498C113.3 117.252 112.771 117.082 112.435 116.731C107.974 112.074 103.699 107.213 102.328 100.702C101.742 97.9221 101.935 94.927 102.109 92.0528C102.252 89.6583 102.377 87.2524 102.177 84.8918C101.943 82.1309 100.05 80.6278 97.3424 80.1745" stroke="black" stroke-linecap="round" stroke-linejoin="round"/>
<path id="Vector_2" d="M73.4059 96.9519C74.1235 99.0405 76.061 98.7836 77.5529 98.7723C81.3071 98.7421 84.321 96.7026 87.1575 94.4893C91.4027 91.1808 94.3071 86.8374 96.1842 81.8595C97.7591 77.686 97.5212 73.3804 95.9878 69.2561C94.5563 65.415 91.6897 62.25 86.0697 64.0629C81.2278 65.6265 76.1705 67.175 72.6694 71.3296C71.253 73.0103 70.0709 74.8798 68.6772 76.5794C67.6386 77.8484 66.566 79.1628 65.2629 80.1221C64.0052 81.0474 62.5323 81.9048 60.7685 80.9455C59.0047 79.9861 58.1473 78.4792 58.17 76.5945C58.2115 73.3426 58.2493 70.1096 57.1955 66.9786C55.6508 62.401 52.652 58.7941 49.4794 55.2816C47.032 52.5698 44.0294 50.4661 41.6802 47.6146C39.2592 44.6762 37.5067 41.6547 37.586 37.7607C37.5936 37.3528 37.4614 36.9449 37.3821 36.4539C35.5767 36.0838 33.7638 36.4841 31.9396 36.6163C28.6009 36.858 25.2545 37.1866 21.9422 36.2764C21.2964 36.0989 20.8507 35.91 20.4126 35.3322C18.7017 33.0623 16.7528 30.9586 15.9181 28.1486C14.5093 23.4162 15.8804 19.3711 19.1398 15.9115C22.5843 12.2555 26.9239 9.98182 31.5544 8.1387C34.81 6.84324 38.2432 6.22005 41.5631 5.17008C42.258 4.95102 42.9643 5.27584 43.6328 5.52133C43.6668 5.53266 43.7688 5.41558 43.8141 5.34004C43.8405 5.29472 43.8179 5.21918 43.8179 5.15498" stroke="black" stroke-linecap="round" stroke-linejoin="round"/>
<path id="Vector_3" d="M73.4036 104.867C72.5764 108.448 70.8693 111.726 69.7853 115.223C68.9695 117.86 67.5456 120.318 66.862 122.977C65.3966 128.661 61.4724 131.838 56.4416 134.093C54.3077 135.048 51.8225 135.358 49.919 136.476C46.8408 138.281 43.4983 138.799 40.2162 139.478C35.4385 140.464 30.6758 141.733 25.7168 141.635C19.3188 141.507 17.1131 138.406 16.8563 133.145C16.7656 131.294 16.8563 129.436 17.4568 127.691C18.012 126.067 17.9818 124.537 17.4228 122.966" stroke="black" stroke-linecap="round" stroke-linejoin="round"/>
<path id="Vector_4" d="M20.8156 36.25C17.0311 40.2761 15.7017 45.2541 15.1427 50.5757C14.7235 54.5754 13.4091 58.3296 12.0117 62.0989C10.3196 66.6614 10.3574 70.4647 13.5451 74.8194C9.17524 80.7151 5.85159 87.2831 2.32022 93.734C-0.217839 98.3682 0.896338 101.431 5.9158 103.184C7.57762 103.762 9.27344 104.022 11.0108 104.109C12.514 104.188 13.6244 105.344 13.2354 106.742C12.8275 108.207 12.8577 109.786 11.8077 111.123C10.8257 112.373 11.5887 113.661 12.3176 114.869C13.0276 116.048 13.9077 116.006 15.1691 115.866C17.9376 115.557 20.5965 115.013 23.0779 113.729" stroke="black" stroke-linecap="round" stroke-linejoin="round"/>
<path id="Vector_5" d="M116.381 118.063C117.589 119.48 116.861 121.153 116.672 122.577C116.249 125.746 116.819 128.816 117.401 131.811C118.851 139.282 121.483 146.405 124.675 153.317" stroke="black" stroke-linecap="round" stroke-linejoin="round"/>
<path id="Vector_6" d="M47.959 138.233C51.1278 140.262 50.5348 143.43 50.1533 146.331C49.8059 148.982 49.3489 151.486 51.3506 153.692C54.2777 156.921 55.1464 160.77 54.746 165" stroke="black" stroke-linecap="round" stroke-linejoin="round"/>
<path id="Vector_7" d="M14.0271 116.368C13.7325 117.297 13.2831 118.177 13.2642 119.197C13.2264 121.316 15.2961 123.412 17.2035 122.698C19.3638 121.89 21.849 121.758 23.643 120.047" stroke="black" stroke-linecap="round" stroke-linejoin="round"/>
<path id="Vector_8" d="M59.973 85.2549C59.9995 86.8903 60.0637 89.3906 60.2336 92.4649C60.4338 96.0718 60.5962 97.1747 60.4678 98.946C60.3243 100.362 60.0183 102.153 59.331 104.132C54.3908 118.363 35.2043 126.812 29.8487 122.348C26.0945 119.22 30.8458 111.213 26.3626 107.161C23.1976 104.298 17.5134 105.386 13.2305 106.742" stroke="black" stroke-linecap="round" stroke-linejoin="round"/>
</g>
</svg>
